<?xml version="1.0" encoding="UTF-8" standalone="no"?>
<svg
   xmlns:dc="http://purl.org/dc/elements/1.1/"
   xmlns:cc="http://creativecommons.org/ns#"
   xmlns:rdf="http://www.w3.org/1999/02/22-rdf-syntax-ns#"
   xmlns:svg="http://www.w3.org/2000/svg"
   xmlns="http://www.w3.org/2000/svg"
   id="svg8"
   version="1.1"
   viewBox="0 0 210 210"
   height="210mm"
   width="210mm">
  <defs
     id="defs2" />
  <metadata
     id="metadata5">
    <rdf:RDF>
      <cc:Work
         rdf:about="">
        <dc:format>image/svg+xml</dc:format>
        <dc:type
           rdf:resource="http://purl.org/dc/dcmitype/StillImage" />
        <dc:title></dc:title>
      </cc:Work>
    </rdf:RDF>
  </metadata>
  <g
     transform="translate(0,-87)"
     id="layer1">
    <path
       id="path3721"
       transform="matrix(0.26458333,0,0,0.26458333,0,87)"
       d="M 399.28516 -0.29296875 A 396.85039 396.85039 0 0 0 2.4355469 396.55859 A 396.85039 396.85039 0 0 0 399.28516 793.4082 A 396.85039 396.85039 0 0 0 653.06055 701.51562 L 571.47266 619.92773 A 60.472448 60.472448 0 0 1 513.10547 604.32031 A 60.472448 60.472448 0 0 1 497.51562 545.9707 L 407.11133 455.56641 A 60.472445 60.472445 0 0 1 348.74414 439.95898 A 60.472445 60.472445 0 0 1 348.74414 354.43945 A 60.472445 60.472445 0 0 1 392.38867 336.73438 A 60.472445 60.472445 0 0 1 434.26562 354.43945 A 60.472445 60.472445 0 0 1 447.15234 420.77539 L 526.91211 500.53516 L 526.91211 284.01758 A 60.472446 60.472446 0 0 1 495.98633 231.28711 A 60.472446 60.472446 0 0 1 556.45898 170.81641 A 60.472446 60.472446 0 0 1 616.93164 231.28711 A 60.472446 60.472446 0 0 1 579.82422 287 L 579.82422 506.05664 A 60.472448 60.472448 0 0 1 598.62695 518.79883 A 60.472448 60.472448 0 0 1 611.51562 585.13867 L 691.19531 664.81836 A 396.85039 396.85039 0 0 0 796.13672 396.55859 A 396.85039 396.85039 0 0 0 399.28516 -0.29296875 z "
       style="fill:#1ed75f;fill-opacity:1;stroke-width:0.99999994" />
  </g>
</svg>
